<svg xmlns="http://www.w3.org/2000/svg" width="7.282" height="11.88" viewBox="0 0 7.282 11.88">
  <defs>
    <style>
      .cls-1 {
        fill: #2e2e2e;
        fill-rule: evenodd;
      }
    </style>
  </defs>
  <path id="Arrow_Icon" data-name="Arrow Icon" class="cls-1" d="M502.944,2188.99l-3.885-3.89a0.994,0.994,0,0,1,0-1.41l0.353-.35a1,1,0,0,1,1.414,0l4.573,4.57c0.008,0.01.016,0.01,0.023,0.02l0.354,0.35a1.009,1.009,0,0,1,0,1.42l-0.354.35c-0.007.01-.017,0.01-0.023,0.02l-4.573,4.57a1,1,0,0,1-1.414,0l-0.353-.35a1.006,1.006,0,0,1,0-1.42Z" transform="translate(-498.781 -2183.06)"/>
</svg>
