<svg xmlns="http://www.w3.org/2000/svg" width="16" height="13" viewBox="0 0 16 13">
  <defs>
    <style>
      .cls-1 {
        fill: #6e6e6e;
        fill-rule: evenodd;
      }
    </style>
  </defs>
  <path id="Share" class="cls-1" d="M435.973,1582s1.539-2.44,6.987-2.44V1582l5.04-3.98-5.04-4.02s0,2.34,0,2.34C442.831,1576.34,435.973,1576.63,435.973,1582Zm9.027,1c-0.021,0,0,.45,0,1h-0.01v2h-12v-10H437c0.553,0,1,.02,1,0a1,1,0,0,0-1-1h-3.01a2,2,0,0,0-2,2v8a2,2,0,0,0,2,2h10a1.991,1.991,0,0,0,1.991-1.9c0-.04.019-0.07,0.019-0.1v-1A1,1,0,0,0,445,1583Z" transform="translate(-432 -1574)"/>
</svg>
