<svg xmlns="http://www.w3.org/2000/svg" width="15" height="15" viewBox="0 0 15 15">
  <defs>
    <style>
      .cls-1 {
        fill: #bcb5a7;
        fill-rule: evenodd;
      }
    </style>
  </defs>
  <path class="cls-1" d="M889,493h5a1,1,0,0,1,1,1v5a1,1,0,0,1-1,1h-5a1,1,0,0,1-1-1v-5A1,1,0,0,1,889,493Zm8,0h5a1,1,0,0,1,1,1v5a1,1,0,0,1-1,1h-5a1,1,0,0,1-1-1v-5A1,1,0,0,1,897,493Zm-8,8h5a1,1,0,0,1,1,1v5a1,1,0,0,1-1,1h-5a1,1,0,0,1-1-1v-5A1,1,0,0,1,889,501Zm8,0h5a1,1,0,0,1,1,1v5a1,1,0,0,1-1,1h-5a1,1,0,0,1-1-1v-5A1,1,0,0,1,897,501Z" transform="translate(-888 -493)"/>
</svg>
