<svg xmlns="http://www.w3.org/2000/svg" width="16" height="10" viewBox="0 0 16 10">
  <defs>
    <style>
      .cls-1 {
        fill: #6e6e6e;
        fill-rule: evenodd;
      }
    </style>
  </defs>
  <path id="View" class="cls-1" d="M364.983,1580.89c-0.006-.02,0-0.04-0.011-0.06a0.03,0.03,0,0,0-.013-0.02,0.163,0.163,0,0,0-.01-0.04,9.012,9.012,0,0,0-15.9-.01c-0.007.02-.006,0.03-0.011,0.04s-0.01.01-.013,0.02a0.562,0.562,0,0,0-.01.07,0.4,0.4,0,0,0-.018.11,0.468,0.468,0,0,0,.018.11,0.417,0.417,0,0,0,.01.06c0,0.01.01,0.02,0.013,0.03a0.182,0.182,0,0,0,.011.03,9.012,9.012,0,0,0,15.9.01,0.377,0.377,0,0,1,.01-0.04,0.226,0.226,0,0,0,.013-0.02,0.47,0.47,0,0,0,.011-0.07A0.438,0.438,0,0,0,365,1581,0.524,0.524,0,0,0,364.983,1580.89ZM357,1585a4.643,4.643,0,1,1,7-4A8.269,8.269,0,0,1,357,1585Zm0-6h0a2,2,0,0,0-2,2,0.25,0.25,0,0,0,.5,0,1.5,1.5,0,0,1,1.5-1.5h0A0.25,0.25,0,0,0,357,1579Zm-0.012-1.5a3.505,3.505,0,1,0,3.5,3.5A3.5,3.5,0,0,0,356.988,1577.5Zm0,6.51a3.005,3.005,0,1,1,3-3.01A3.01,3.01,0,0,1,356.988,1584.01Z" transform="translate(-349 -1576)"/>
</svg>
